<?xml version="1.0" encoding="UTF-8" standalone="no"?>
<svg
   xmlns:dc="http://purl.org/dc/elements/1.1/"
   xmlns:cc="http://creativecommons.org/ns#"
   xmlns:rdf="http://www.w3.org/1999/02/22-rdf-syntax-ns#"
   xmlns:svg="http://www.w3.org/2000/svg"
   xmlns="http://www.w3.org/2000/svg"
   xmlns:sodipodi="http://sodipodi.sourceforge.net/DTD/sodipodi-0.dtd"
   xmlns:inkscape="http://www.inkscape.org/namespaces/inkscape"
   width="1024"
   height="500"
   viewBox="0 0 270.93333 132.29167"
   version="1.1"
   id="svg94"
   sodipodi:docname="featureGraphic.svg"
   inkscape:version="1.0.1 (3bc2e813f5, 2020-09-07)"
   inkscape:export-filename="/k/kde5/src/itinerary/fastlane/metadata/org.kde.itinerary/en-US/images/featureGraphic.png"
   inkscape:export-xdpi="96"
   inkscape:export-ydpi="96">
  <metadata
     id="metadata100">
    <rdf:RDF>
      <cc:Work
         rdf:about="">
        <dc:format>image/svg+xml</dc:format>
        <dc:type
           rdf:resource="http://purl.org/dc/dcmitype/StillImage" />
        <dc:title></dc:title>
      </cc:Work>
    </rdf:RDF>
  </metadata>
  <defs
     id="defs98" />
  <sodipodi:namedview
     pagecolor="#ffffff"
     bordercolor="#666666"
     borderopacity="1"
     objecttolerance="10"
     gridtolerance="10"
     guidetolerance="10"
     inkscape:pageopacity="0"
     inkscape:pageshadow="2"
     inkscape:window-width="1920"
     inkscape:window-height="1135"
     id="namedview96"
     showgrid="false"
     inkscape:zoom="0.89032846"
     inkscape:cx="406.00752"
     inkscape:cy="61.954068"
     inkscape:window-x="1920"
     inkscape:window-y="0"
     inkscape:window-maximized="1"
     inkscape:current-layer="svg94" />
  <linearGradient
     id="a"
     x1="24"
     x2="24"
     y1="294"
     y2="257"
     gradientTransform="matrix(0.26458338,0,0,0.25852706,-3.2155795e-6,-64.355078)"
     gradientUnits="userSpaceOnUse">
    <stop
       stop-color="#1d99f3"
       offset="0"
       id="stop2" />
    <stop
       stop-color="#3daee9"
       offset="1"
       id="stop4" />
  </linearGradient>
  <linearGradient
     id="b"
     x1="24"
     x2="24"
     y1="294"
     y2="257"
     gradientTransform="matrix(0.26458335,0,0,0.25852708,-2.644068e-6,-64.355075)"
     gradientUnits="userSpaceOnUse">
    <stop
       stop-color="#27ae60"
       offset="0"
       id="stop7" />
    <stop
       stop-color="#2ecc71"
       offset="1"
       id="stop9" />
  </linearGradient>
  <linearGradient
     id="c"
     x1="120.39682"
     x2="120.34652"
     y1="23.021145"
     y2="32.414047"
     gradientTransform="matrix(0.36449001,0.09942568,-0.12268807,0.4661335,-30.88205,-18.179526)"
     gradientUnits="userSpaceOnUse">
    <stop
       stop-color="#bdc3c7"
       offset="0"
       id="stop12" />
    <stop
       stop-color="#fff"
       offset="1"
       id="stop14" />
  </linearGradient>
  <linearGradient
     id="d"
     x1="119.85059"
     x2="119.85059"
     y1="27.383589"
     y2="33.01519"
     gradientTransform="matrix(0.36448998,0.0994257,-0.12268811,0.46613352,-30.88205,-18.179526)"
     gradientUnits="userSpaceOnUse">
    <stop
       stop-color="#7f8c8d"
       offset="0"
       id="stop17" />
    <stop
       stop-color="#95a5a6"
       offset="1"
       id="stop19" />
  </linearGradient>
  <linearGradient
     id="e"
     x1="112.7049"
     x2="112.7049"
     y1="30.894091"
     y2="32.711887"
     gradientTransform="matrix(0.36448998,0.0994257,-0.12268811,0.46613352,-30.88205,-18.179526)"
     gradientUnits="userSpaceOnUse">
    <stop
       stop-color="#2c3e50"
       offset="0"
       id="stop22" />
    <stop
       stop-color="#34495e"
       offset="1"
       id="stop24" />
  </linearGradient>
  <linearGradient
     id="f"
     x1="31"
     x2="31"
     y1="-21.230349"
     y2="36"
     gradientTransform="matrix(0.26458334,0,0,0.26483263,1.1032432e-7,-7.4760345e-4)"
     gradientUnits="userSpaceOnUse">
    <stop
       stop-color="#2980b9"
       offset="0"
       id="stop27" />
    <stop
       stop-color="#3daee9"
       stop-opacity="0"
       offset="1"
       id="stop29" />
  </linearGradient>
  <rect
     x="136.29819"
     y="0.14693742"
     width="134.96733"
     height="134.96733"
     rx="1.586006"
     ry="1.5875"
     fill="#34495e"
     stroke-width="0.264708"
     id="rect32" />
  <rect
     x="-0.67662352"
     y="0.14693742"
     width="271.94214"
     height="131.59314"
     rx="1.5860062"
     ry="1.5875"
     fill="url(#a)"
     stroke-width="0.264708"
     id="rect34"
     style="fill:url(#a)" />
  <path
     d="m 224.02696,10.282658 v 3.374184 H 213.90441 V 23.79257 h 10.12255 l 3.37419,84.43366 h 43.86438 V 54.417238 Z"
     fill="url(#f)"
     stroke-width="0.264708"
     id="path36"
     style="fill:url(#f)" />
  <path
     d="M 0.07818423,111.60042 0.00106871,132.50785 271.26993,133.45923 c 0,0 -0.12563,-10.08214 -0.011,-21.85881 z"
     fill="url(#b)"
     stroke-width="0.264708"
     id="path38"
     style="fill:url(#b)"
     sodipodi:nodetypes="ccccc" />
  <path
     d="m 200.40816,10.282496 v 3.377156 h 10.12193 v 10.13147 h -16.87163 v 3.377157 h -6.74796 l 6.74796,20.264683 h -16.86989 l 10.12193,23.64184 h 10.12368 v 37.150458 h 30.36755 V 71.074802 h 10.12193 l 10.12194,-23.64184 h -16.8699 l 6.74796,-20.264683 h -6.74796 v -3.377157 h -16.87162 v -10.13147 h 10.12367 v -3.377156 z"
     fill="#2980b9"
     id="path40"
     style="stroke-width:0.0700373" />
  <path
     d="m 165.28191,50.364264 c -4.43405,0.155718 -8.82245,1.175046 -12.73887,3.624612 -5.92279,3.704492 -15.21723,3.601174 -9.31854,10.50478 9.10185,10.65255 23.13241,12.98186 35.97591,16.943411 21.31014,4.594086 42.09372,11.232862 63.12095,16.936818 7.56392,2.481055 18.41216,3.334165 28.94417,3.459855 V 77.924489 c -30.87444,-9.289751 -69.74976,-20.369378 -92.96798,-26.011526 -4.10221,-0.996865 -8.5816,-1.704431 -13.01564,-1.548699 z"
     fill="url(#c)"
     stroke-width="0.42673"
     id="path42"
     style="fill:url(#c)" />
  <path
     d="m 195.71142,79.231848 c -1.03377,-0.281994 -2.1467,0.555742 -2.49466,1.877761 l -1.62354,6.168392 c -0.34796,1.322019 0.20441,2.614007 1.23818,2.896 l 17.00897,4.63971 c 0.87699,0.239231 1.80476,-0.332848 2.28018,-1.317274 1.5535,0.09348 3.10733,0.186816 4.66076,0.280345 0.49295,-1.624921 0.98582,-3.249544 1.47877,-4.874459 -1.40226,-0.977336 -2.80513,-1.954879 -4.20739,-2.932222 -0.003,-1.006811 -0.50812,-1.870875 -1.32737,-2.097199 -0.001,-3.54e-4 -0.004,-10e-4 -0.005,-0.0013 z"
     fill="url(#e)"
     stroke-width="0.426731"
     id="path44"
     style="fill:url(#e)" />
  <g
     transform="matrix(4.6482748,1.2679574,-1.5646189,5.9445159,-271.03174,-245.19001)"
     fill="#232629"
     id="g88"
     style="stroke-width:0.078414">
    <path
       d="m 101.21759,28.533143 c -0.13528,0.0901 -0.26674,0.184668 -0.39067,0.288869 -0.0513,0.04317 -0.1063,0.08418 -0.16175,0.125058 0.54774,0.14773 1.06955,0.284673 1.62213,0.03152 l 0.0615,-0.309025 c -0.4224,-0.02919 -0.83082,-0.06324 -1.1312,-0.136424 z"
       id="path46"
       style="stroke-width:0.078414" />
    <rect
       x="105.44054"
       y="28.747101"
       width="0.50765997"
       height="0.60045898"
       rx="0.019903833"
       id="rect48"
       style="stroke-width:0.078414"
       ry="0.019903833" />
    <rect
       x="106.49887"
       y="28.747101"
       width="0.50765997"
       height="0.60045898"
       rx="0.019903833"
       id="rect50"
       style="stroke-width:0.078414"
       ry="0.019903833" />
    <rect
       x="107.55721"
       y="28.747101"
       width="0.50765997"
       height="0.60045898"
       rx="0.019903833"
       id="rect52"
       style="stroke-width:0.078414"
       ry="0.019903833" />
    <rect
       x="108.61554"
       y="28.747101"
       width="0.50765997"
       height="0.60045898"
       rx="0.019903833"
       id="rect54"
       style="stroke-width:0.078414"
       ry="0.019903833" />
    <rect
       x="109.67387"
       y="28.747101"
       width="0.50765997"
       height="0.60045898"
       rx="0.019903833"
       id="rect56"
       style="stroke-width:0.078414"
       ry="0.019903833" />
    <rect
       x="110.73219"
       y="28.747101"
       width="0.50765997"
       height="0.60045898"
       rx="0.019903833"
       id="rect58"
       style="stroke-width:0.078414"
       ry="0.019903833" />
    <rect
       x="111.79049"
       y="28.747101"
       width="0.50765997"
       height="0.60045898"
       rx="0.019903833"
       id="rect60"
       style="stroke-width:0.078414"
       ry="0.019903833" />
    <rect
       x="112.84885"
       y="28.747101"
       width="0.50765997"
       height="0.60045898"
       rx="0.019903833"
       id="rect62"
       style="stroke-width:0.078414"
       ry="0.019903833" />
    <rect
       x="113.90718"
       y="28.747101"
       width="0.50765997"
       height="0.60045898"
       rx="0.019903833"
       id="rect64"
       style="stroke-width:0.078414"
       ry="0.019903833" />
    <rect
       x="114.96552"
       y="28.747101"
       width="0.50765997"
       height="0.60045898"
       rx="0.019903833"
       id="rect66"
       style="stroke-width:0.078414"
       ry="0.019903833" />
    <rect
       x="116.02385"
       y="28.747101"
       width="0.50765997"
       height="0.60045898"
       rx="0.019903833"
       id="rect68"
       style="stroke-width:0.078414"
       ry="0.019903833" />
    <rect
       x="117.08216"
       y="28.747101"
       width="0.50765997"
       height="0.60045898"
       rx="0.019903833"
       id="rect70"
       style="stroke-width:0.078414"
       ry="0.019903833" />
    <rect
       x="118.14051"
       y="28.747101"
       width="0.50765997"
       height="0.60045898"
       rx="0.019903833"
       id="rect72"
       style="stroke-width:0.078414"
       ry="0.019903833" />
    <rect
       x="119.19883"
       y="28.747101"
       width="0.50765997"
       height="0.60045898"
       rx="0.019903833"
       id="rect74"
       style="stroke-width:0.078414"
       ry="0.019903833" />
    <rect
       x="120.25716"
       y="28.747101"
       width="0.50765997"
       height="0.60045898"
       rx="0.019903833"
       id="rect76"
       style="stroke-width:0.078414"
       ry="0.019903833" />
    <rect
       x="121.31549"
       y="28.747101"
       width="0.50765997"
       height="0.60045898"
       rx="0.019903833"
       id="rect78"
       style="stroke-width:0.078414"
       ry="0.019903833" />
    <rect
       x="122.37383"
       y="28.747101"
       width="0.50765997"
       height="0.60045898"
       rx="0.019903833"
       id="rect80"
       style="stroke-width:0.078414"
       ry="0.019903833" />
    <rect
       x="123.43217"
       y="28.747101"
       width="0.50765997"
       height="0.60045898"
       rx="0.019903833"
       id="rect82"
       style="stroke-width:0.078414"
       ry="0.019903833" />
    <rect
       x="124.49049"
       y="28.747101"
       width="0.50765997"
       height="0.60045898"
       rx="0.019903833"
       id="rect84"
       style="stroke-width:0.078414"
       ry="0.019903833" />
    <rect
       x="125.54883"
       y="28.747101"
       width="0.50765997"
       height="0.60045898"
       rx="0.019903833"
       id="rect86"
       style="stroke-width:0.078414"
       ry="0.019903833" />
  </g>
  <path
     d="m 192.59901,78.38255 31.11019,2.014138 25.06665,1.554465 16.34024,-10.887629 3.10896,0.84806 -10.26592,13.379291 -14.66377,2.1907 -18.72008,-0.376529 z"
     fill="url(#d)"
     opacity="0.99"
     stroke-width="0.426731"
     id="path90"
     style="fill:url(#d)" />
  <path
     d="m -1.4069199,108.22623 c 0,0 -0.099579,2.18028 0,3.26874 0.1066519,1.16565 0.63893552,3.48622 0.63893552,3.48622 L 271.32455,114.91509 c 0,0 -0.13251,-3.31464 -0.11917,-3.42009 v -3.26874 z"
     fill="#34495e"
     stroke-width="0.264709"
     id="path92"
     sodipodi:nodetypes="csccccc" />
  <g
     id="g1780"
     transform="translate(-5.3274563,6.4082344)">
    <path
       d="m 64.863124,39.705134 c -0.198594,-0.0098 -0.390418,0.05001 -0.548451,0.208048 l -3.426133,3.426132 c -0.316067,0.316068 -0.316067,0.824904 0,1.140996 l 3.539599,5.559976 c -0.283314,0.571568 -0.528629,1.161226 -0.734396,1.765072 l -6.429905,1.427816 c -0.44702,0 -0.806892,0.35986 -0.806892,0.806892 v 4.841341 c 0,0.44702 0.370534,0.709919 0.806892,0.806892 l 6.433058,1.43097 c 0.199265,0.597917 0.4372,1.182281 0.712335,1.749311 l -3.545905,5.572583 c -0.240009,0.377122 -0.316067,0.824904 0,1.140996 l 3.422979,3.426132 c 0.316067,0.316067 0.824903,0.316067 1.140995,0 l 5.572583,-3.549058 c 0.576448,0.287156 1.171388,0.535643 1.780833,0.743849 l 1.427816,6.429911 c 0,0.44702 0.35986,0.806886 0.806892,0.806886 h 4.841341 c 0.44702,0 0.709919,-0.370534 0.806887,-0.806886 l 1.430975,-6.433058 c 0.606822,-0.202315 1.199628,-0.444458 1.774526,-0.724942 l 5.547369,3.533298 c 0.316067,0.316067 0.824903,0.316067 1.140995,0 l 3.426126,-3.426132 c 0.316067,-0.316068 0.240009,-0.763862 0,-1.140996 l -1.512913,-2.376541 -1.128388,0.45074 -3.615248,-5.42129 c -1.821924,4.051198 -5.848969,6.658605 -10.290999,6.663143 -6.238868,0 -11.296467,-5.057599 -11.296467,-11.29646 0.005,-4.358543 2.517144,-8.32535 6.455126,-10.193294 v -3.473408 c -0.543023,0.185846 -1.0745,0.403714 -1.591717,0.652445 L 65.455668,39.9132 c -0.188591,-0.119974 -0.393956,-0.198533 -0.59255,-0.208048 z"
       fill="#ffffff"
       id="path1176"
       style="stroke-width:0.264583" />
    <path
       d="m 82.277454,32.254006 -8.068904,0.747003 v 31.528607 l 8.068904,-1.613784 V 50.005593 L 91.960137,64.529616 100.02903,61.302053 89.539466,47.723602 100.03534,33.867785 91.585058,32.254006 82.277454,45.971138 Z"
       fill="#ffffff"
       id="path1178"
       style="stroke-width:0.264583" />
  </g>
</svg>
