<?xml version="1.0" encoding="UTF-8" standalone="no"?>
<svg
   id="Ebene_1"
   viewBox="0 0 22 15.4"
   version="1.1"
   sodipodi:docname="account-deutschbahn.svg"
   width="22"
   height="15.4"
   inkscape:version="1.4 (e7c3feb100, 2024-10-09)"
   xmlns:inkscape="http://www.inkscape.org/namespaces/inkscape"
   xmlns:sodipodi="http://sodipodi.sourceforge.net/DTD/sodipodi-0.dtd"
   xmlns="http://www.w3.org/2000/svg"
   xmlns:svg="http://www.w3.org/2000/svg"
   xmlns:rdf="http://www.w3.org/1999/02/22-rdf-syntax-ns#"
   xmlns:cc="http://creativecommons.org/ns#"
   xmlns:dc="http://purl.org/dc/elements/1.1/">
  <defs
     id="defs3" />
  <sodipodi:namedview
     id="namedview3"
     pagecolor="#ffffff"
     bordercolor="#000000"
     borderopacity="0.25"
     inkscape:showpageshadow="2"
     inkscape:pageopacity="0.0"
     inkscape:pagecheckerboard="0"
     inkscape:deskcolor="#d1d1d1"
     inkscape:zoom="8.42"
     inkscape:cx="50"
     inkscape:cy="35.035629"
     inkscape:window-width="1920"
     inkscape:window-height="1008"
     inkscape:window-x="0"
     inkscape:window-y="0"
     inkscape:window-maximized="1"
     inkscape:current-layer="Ebene_1" />
  <style
     id="style1">.st0{fill:#f01414}.st1{fill:#fff}</style>
  <title
     id="title1">db_em_rgb_100px</title>
  <path
     class="st0"
     d="M 19.8,0 H 2.2 C 0.99,0 0,0.99 0,2.2 v 11 c 0,1.21 0.99,2.2 2.2,2.2 h 17.6 c 1.21,0 2.2,-0.99 2.2,-2.222 V 2.2 C 22,0.99 21.01,0 19.8,0 Z"
     id="path1"
     style="stroke-width:0.22" />
  <path
     class="st1"
     d="m 20.394,13.178 c 0.022,0.33 -0.242,0.616 -0.594,0.638 H 2.2 C 1.87,13.816 1.606,13.53 1.606,13.2 V 2.2 C 1.584,1.87 1.848,1.584 2.178,1.562 H 19.8 c 0.33,0 0.594,0.286 0.594,0.616 z"
     id="path2"
     style="stroke-width:0.22" />
  <path
     class="st0"
     d="M 6.732,12.738 H 3.036 V 2.662 h 3.696 c 2.618,0 4.048,1.628 4.048,4.994 0,2.904 -0.99,5.06 -4.048,5.082 z M 8.338,7.854 C 8.338,5.83 8.118,4.246 5.94,4.246 H 5.456 v 6.864 h 0.858 c 1.276,0 2.024,-1.034 2.024,-3.256 z M 17.16,7.458 C 18.194,7.15 18.898,6.204 18.92,5.104 18.92,4.884 18.876,2.64 16.038,2.64 H 11.836 V 12.716 H 15.4 c 0.946,0 3.894,0 3.894,-2.838 0,-0.682 -0.308,-2.024 -2.134,-2.42 z M 14.234,4.224 h 0.77 c 1.078,0 1.518,0.374 1.518,1.21 0,0.66 -0.484,1.21 -1.32,1.21 h -0.946 v -2.42 z m 0.99,6.886 h -0.99 V 8.514 h 1.056 c 1.254,0 1.562,0.726 1.562,1.298 0,1.298 -1.232,1.298 -1.628,1.298 z"
     id="path3"
     style="stroke-width:0.22" />
  <metadata
     id="metadata3">
    <rdf:RDF>
      <cc:Work
         rdf:about="">
        <dc:title>db_em_rgb_100px</dc:title>
      </cc:Work>
    </rdf:RDF>
  </metadata>
</svg>
