<?xml version="1.0" encoding="UTF-8" standalone="no"?>
<!-- Created with Inkscape (http://www.inkscape.org/) -->

<svg
   width="200"
   height="80"
   viewBox="0 0 52.916666 21.166668"
   version="1.1"
   id="svg1"
   xmlns:xlink="http://www.w3.org/1999/xlink"
   xmlns="http://www.w3.org/2000/svg"
   xmlns:svg="http://www.w3.org/2000/svg"
   xmlns:rdf="http://www.w3.org/1999/02/22-rdf-syntax-ns#"
   xmlns:cc="http://creativecommons.org/ns#"
   xmlns:dc="http://purl.org/dc/elements/1.1/">
  <defs
     id="defs1">
    <linearGradient
       x1="0.5"
       y1="0"
       x2="0.5"
       y2="1"
       id="linearGradient48">
      <stop
         stop-color="hsl(208, 77%, 50%)"
         stop-opacity="1"
         offset="0"
         id="stop47"
         style="stop-color:#1d99f3;stop-opacity:1;" />
      <stop
         stop-color="hsl(208, 74%, 93%)"
         stop-opacity="1"
         offset="1"
         id="stop48"
         style="stop-color:#3daee9;stop-opacity:1;" />
    </linearGradient>
    <linearGradient
       x1="0.5"
       y1="0"
       x2="0.5"
       y2="1"
       id="linearGradient46">
      <stop
         stop-color="hsl(208, 77%, 50%)"
         stop-opacity="1"
         offset="0%"
         id="stop45" />
      <stop
         stop-color="hsl(208, 74%, 93%)"
         stop-opacity="1"
         offset="1"
         id="stop46"
         style="stop-color:#3daee9;stop-opacity:1;" />
    </linearGradient>
    <linearGradient
       id="i"
       x1="90.319038"
       x2="120.33868"
       y1="-162.79909"
       y2="139.84253"
       gradientTransform="matrix(0.26458333,0,0,0.26458334,-48.024003,216.98)"
       gradientUnits="userSpaceOnUse">
      <stop
         stop-color="#2980b9"
         offset="0"
         id="stop9" />
      <stop
         stop-color="#3daee9"
         stop-opacity="0"
         offset="1"
         id="stop10" />
    </linearGradient>
    <linearGradient
       id="b"
       x1="17.304167"
       x2="17.304167"
       y1="285.00003"
       y2="257.00003"
       gradientUnits="userSpaceOnUse"
       xlink:href="#a"
       gradientTransform="translate(-48.024002,-32.020014)" />
    <linearGradient
       id="a">
      <stop
         stop-color="#4d4d4d"
         offset="0"
         id="stop1" />
      <stop
         stop-color="#7f8c8d"
         offset="1"
         id="stop2" />
    </linearGradient>
    <linearGradient
       id="j"
       x1="24"
       x2="24"
       y1="294"
       y2="257"
       gradientTransform="matrix(7.2023721,0,0,0.97619046,-225.78591,-26.020017)"
       gradientUnits="userSpaceOnUse">
      <stop
         stop-color="#27ae60"
         offset="0"
         id="stop11" />
      <stop
         stop-color="#2ecc71"
         offset="1"
         id="stop12" />
    </linearGradient>
    <linearGradient
       id="e"
       x1="29.588079"
       x2="29.588079"
       y1="281.11707"
       y2="290.73599"
       gradientTransform="matrix(3.3858431,0,0,1,-77.418529,-32.020008)"
       gradientUnits="userSpaceOnUse">
      <stop
         stop-opacity=".2"
         offset="0"
         id="stop5" />
      <stop
         stop-color="#fff"
         stop-opacity="0"
         offset="1"
         id="stop6" />
    </linearGradient>
    <linearGradient
       id="d"
       x1="24.183334"
       x2="24.183334"
       y1="285.00003"
       y2="257.00003"
       gradientUnits="userSpaceOnUse"
       xlink:href="#a"
       gradientTransform="translate(-48.024002,-32.020014)" />
    <linearGradient
       id="g"
       x1="32.114254"
       x2="32.114254"
       y1="263.09515"
       y2="271.94937"
       gradientUnits="userSpaceOnUse"
       xlink:href="#f" />
    <linearGradient
       id="f">
      <stop
         stop-color="#232629"
         offset="0"
         id="stop13" />
      <stop
         stop-color="#31363b"
         offset="1"
         id="stop14" />
    </linearGradient>
    <linearGradient
       xlink:href="#f"
       id="linearGradient1"
       gradientUnits="userSpaceOnUse"
       x1="32.114254"
       y1="263.09515"
       x2="32.114254"
       y2="271.94937"
       gradientTransform="matrix(1.2756317,0,0,1,-57.119807,-32.020014)" />
    <linearGradient
       xlink:href="#f"
       id="linearGradient2"
       gradientUnits="userSpaceOnUse"
       x1="32.114254"
       y1="263.09515"
       x2="32.114254"
       y2="271.94937" />
    <linearGradient
       xlink:href="#f"
       id="linearGradient3"
       gradientUnits="userSpaceOnUse"
       x1="32.114254"
       y1="263.09515"
       x2="32.114254"
       y2="271.94937" />
    <linearGradient
       xlink:href="#f"
       id="linearGradient4"
       gradientUnits="userSpaceOnUse"
       x1="32.114254"
       y1="263.09515"
       x2="32.114254"
       y2="271.94937" />
    <linearGradient
       xlink:href="#f"
       id="linearGradient5"
       gradientUnits="userSpaceOnUse"
       x1="32.114254"
       y1="263.09515"
       x2="32.114254"
       y2="271.94937" />
    <linearGradient
       xlink:href="#f"
       id="linearGradient6"
       gradientUnits="userSpaceOnUse"
       x1="32.114254"
       y1="263.09515"
       x2="32.114254"
       y2="271.94937" />
    <linearGradient
       xlink:href="#f"
       id="linearGradient7"
       gradientUnits="userSpaceOnUse"
       x1="32.114254"
       y1="263.09515"
       x2="32.114254"
       y2="271.94937" />
    <linearGradient
       id="d-3"
       x1="24.183334"
       x2="24.183334"
       y1="285.00003"
       y2="257.00003"
       gradientUnits="userSpaceOnUse"
       xlink:href="#a"
       gradientTransform="translate(-34.212414,-32.020399)" />
    <linearGradient
       xlink:href="#a"
       id="linearGradient8"
       gradientUnits="userSpaceOnUse"
       gradientTransform="translate(-27.454074,-32.050651)"
       x1="24.183334"
       y1="285.00003"
       x2="24.183334"
       y2="257.00003" />
    <linearGradient
       xlink:href="#f"
       id="linearGradient9"
       gradientUnits="userSpaceOnUse"
       gradientTransform="matrix(1.2756317,0,0,1,-41.117666,-32.039301)"
       x1="32.114254"
       y1="263.09515"
       x2="32.114254"
       y2="271.94937" />
    <linearGradient
       xlink:href="#f"
       id="linearGradient10"
       gradientUnits="userSpaceOnUse"
       gradientTransform="matrix(1.2756317,0,0,1,-25.109666,-32.039301)"
       x1="32.114254"
       y1="263.09515"
       x2="32.114254"
       y2="271.94937" />
    <linearGradient
       xlink:href="#f"
       id="linearGradient11"
       gradientUnits="userSpaceOnUse"
       gradientTransform="matrix(1.2756317,0,0,1,-9.1016601,-32.038037)"
       x1="32.114254"
       y1="263.09515"
       x2="32.114254"
       y2="271.94937" />
    <linearGradient
       xlink:href="#f"
       id="linearGradient12"
       gradientUnits="userSpaceOnUse"
       gradientTransform="matrix(1.2756317,0,0,1,6.9063442,-32.038034)"
       x1="32.114254"
       y1="263.09515"
       x2="32.114254"
       y2="271.94937" />
    <linearGradient
       xlink:href="#a"
       id="linearGradient14"
       gradientUnits="userSpaceOnUse"
       gradientTransform="translate(-11.200909,-32.05065)"
       x1="24.183334"
       y1="285.00003"
       x2="24.183334"
       y2="257.00003" />
    <linearGradient
       xlink:href="#a"
       id="linearGradient15"
       gradientUnits="userSpaceOnUse"
       gradientTransform="translate(-4.4425673,-32.050652)"
       x1="24.183334"
       y1="285.00003"
       x2="24.183334"
       y2="257.00003" />
    <linearGradient
       xlink:href="#a"
       id="linearGradient16"
       gradientUnits="userSpaceOnUse"
       gradientTransform="translate(11.810593,-32.050652)"
       x1="24.183334"
       y1="285.00003"
       x2="24.183334"
       y2="257.00003" />
    <linearGradient
       xlink:href="#a"
       id="linearGradient17"
       gradientUnits="userSpaceOnUse"
       gradientTransform="translate(18.568933,-32.050655)"
       x1="24.183334"
       y1="285.00003"
       x2="24.183334"
       y2="257.00003" />
    <linearGradient
       xlink:href="#a"
       id="linearGradient18"
       gradientUnits="userSpaceOnUse"
       gradientTransform="translate(35.822602,-32.05065)"
       x1="24.183334"
       y1="285.00003"
       x2="24.183334"
       y2="257.00003" />
    <linearGradient
       xlink:href="#a"
       id="linearGradient19"
       gradientUnits="userSpaceOnUse"
       gradientTransform="translate(42.58094,-32.050652)"
       x1="24.183334"
       y1="285.00003"
       x2="24.183334"
       y2="257.00003" />
    <linearGradient
       xlink:href="#linearGradient48"
       id="linearGradient17-9"
       x1="635.38202"
       y1="-116.71626"
       x2="635.38202"
       y2="1687.4095"
       gradientTransform="scale(1.8748996,0.5333619)"
       gradientUnits="userSpaceOnUse" />
    <linearGradient
       xlink:href="#linearGradient46"
       id="linearGradient24"
       x1="701.29541"
       y1="-46.292473"
       x2="701.29541"
       y2="1944.9902"
       gradientTransform="scale(1.6986814,0.58869191)"
       gradientUnits="userSpaceOnUse" />
  </defs>
  <metadata
     id="metadata1">
    <rdf:RDF>
      <cc:Work
         rdf:about="">
        <dc:format>image/svg+xml</dc:format>
        <dc:type
           rdf:resource="http://purl.org/dc/dcmitype/StillImage" />
      </cc:Work>
    </rdf:RDF>
  </metadata>
  <g
     transform="matrix(0.26445105,0,0,0.264418,39.429683,-47.254729)"
     id="g39">
    <g
       fill="url(#sssurf-grad)"
       transform="matrix(0.13878946,0,0,0.11251493,-189.76183,172.82164)"
       id="g8"
       style="fill:url(#linearGradient24)">
      <path
         d="m -10,10 c 52.083333,7.916667 147.91667,45.083333 250,38 102.08333,-7.083333 140,-70.75 240,-72 100,-1.25 140,67.25 240,66 100,-1.25 140,-76.375 240,-72 100,4.375 140,90.083333 240,93 100,2.916667 140,-71.5 240,-79 100,-7.5 140,46.75 240,43 100,-3.75 140,-62.875 240,-61 100,1.875 140,71.458333 240,70 100,-1.458333 137.9167,-152.83333 240,-77 102.0833,75.833333 854.1667,244.95833 250,441 C 2045.8333,596.04167 156.25,795.83333 -500,900"
         opacity="1"
         id="path8"
         style="fill:url(#linearGradient17-9)"
         transform="translate(0,245)" />
    </g>
    <path
       d="m -17.04078,221.9589 v 8.99977 l -5.000546,-4.99922 v 10.00039 l -10.99964,-11.00102 v 9.00172 l -5.000547,-5.00117 v 1.00062 l -2.000999,-2.00125 v 12.38079 c 15.054424,-1.52424 24.200105,-4.82936 36.0004207,-6.04089 v -6.77767 c 0,-0.37633 -0.03795,-0.74351 -0.103568,-1.1003 l -3.9003878,-3.90087 0.0039,8.43887 z"
       fill="url(#i)"
       stroke-width="0.264584"
       id="path13"
       style="fill:url(#i)" />
    <path
       d="m 0.40895996,221.95891 v 2.00125 H -1.2983485 v 6.99851 h -5.1319462 v -4.99922 h -3.4179564 v 1.00063 H -11.5589 v 3.99859 h -8.5499 l -3.417956,-1.9993 v -1.00062 l -1.710648,-0.99867 v -2.00125 h -3.417956 v 1.00062 h -1.710649 v 4.99922 l -3.421297,2.00125 v -4.00055 h -3.417956 v -1.00062 h -5.128602 l -1.710648,1.00062 v 24.02087 h 68.42594 V 228.95937 H 20.92672 v -1.99929 h -3.417956 l -0.01002,-4.44028 -6.83591,4.00055 0.0067,2.43902 H 7.2482362 v -1.00062 l -3.4179568,-1.9993 v -1.99929 h -1.710671 v -2.00125 z"
       fill="#2980b9"
       stroke-width="1.30759"
       id="path14" />
    <path
       d="m 67.75014,221.95886 v 2.00125 h -1.70731 v 6.99851 h -5.13195 v -4.99922 h -3.41795 v 1.00063 h -1.71065 v 3.99859 h -8.5499 l -3.41796,-1.9993 v -1.00062 l -1.71064,-0.99867 v -2.00125 h -3.41796 v 1.00062 h -1.71065 v 4.99922 l -3.421297,2.00125 v -4.00055 h -3.417956 v -1.00062 h -5.128604 l -1.710648,1.00062 v 24.02087 H 91.7226 v -24.02087 h -3.45471 v -1.99929 h -3.41795 l -0.01,-4.44028 -6.83591,4.00055 0.007,2.43902 h -3.4213 v -1.00062 l -3.41796,-1.9993 v -1.99929 H 69.4611 v -2.00125 z"
       fill="#2980b9"
       stroke-width="1.30759"
       id="path14-1" />
    <path
       d="m -67.748324,222.32944 v 2.00125 h -1.707308 v 6.99851 h -5.131945 v -4.99922 h -3.417956 v 1.00063 h -1.710648 v 3.99859 h -8.5499 l -3.417956,-1.9993 v -1.00062 l -1.710648,-0.99867 v -2.00125 h -3.417956 v 1.00062 h -1.710649 v 4.99922 l -3.4213,2.00125 v -4.00055 h -3.41795 v -1.00062 h -5.12861 l -1.71065,1.00062 v 24.02087 h 68.425939 V 229.3299 h -3.454707 v -1.99929 h -3.417955 l -0.01002,-4.44028 -6.835909,4.00055 0.0067,2.43902 h -3.421297 v -1.00062 l -3.417956,-1.9993 v -1.99929 h -1.710671 v -2.00125 z"
       fill="#2980b9"
       stroke-width="1.30759"
       id="path14-5" />
    <path
       d="m -92.63756,222.95562 v 2.00125 h -1.707308 v 6.99851 h -5.131945 v -4.99922 h -3.417957 v 1.00063 h -1.71065 v 3.99859 h -8.5499 l -3.41795,-1.9993 v -1.00062 l -1.71065,-0.99867 v -2.00125 h -3.41796 v 1.00062 h -1.71065 v 4.99922 l -3.42129,2.00125 v -4.00055 h -3.41796 v -1.00062 h -5.1286 l -1.71065,1.00062 v 24.02087 h 68.425936 v -24.02087 h -3.454708 v -1.99929 h -3.417956 l -0.01002,-4.44028 -6.83591,4.00055 0.0067,2.43902 h -3.421297 v -1.00062 l -3.417956,-1.9993 v -1.99929 h -1.710671 v -2.00125 z"
       fill="#2980b9"
       stroke-width="1.30759"
       id="path14-5-1" />
    <path
       d="m -152.66756,222.95562 v 2.00125 h -1.70731 v 6.99851 h -5.13195 v -4.99922 h -3.41795 v 1.00063 h -1.71065 v 3.99859 h -8.5499 l -3.41796,-1.9993 v -1.00062 l -1.71064,-0.99867 v -2.00125 h -3.41796 v 1.00062 h -1.71065 v 4.99922 l -3.4213,2.00125 v -4.00055 h -3.41795 v -1.00062 h -5.12861 l -1.71064,1.00062 v 24.02087 h 68.42593 v -24.02087 h -3.45471 v -1.99929 h -3.41795 l -0.01,-4.44028 -6.83591,4.00055 0.007,2.43902 h -3.4213 v -1.00062 l -3.41795,-1.9993 v -1.99929 h -1.71068 v -2.00125 z"
       fill="#2980b9"
       stroke-width="1.30759"
       id="path14-5-1-2" />
    <path
       d="m -41.024004,224.98 h 5.999999 v 16.81588 h -5.999999 z"
       fill="none"
       id="path15" />
    <path
       d="m -27.719766,250.00127 a 2.9999998,2.9999998 0 0 1 -2.994685,3 2.9999998,2.9999998 0 0 1 -3.005296,-2.98937 2.9999998,2.9999998 0 0 1 2.984038,-3.01059 2.9999998,2.9999998 0 0 1 3.015868,2.9787"
       fill="url(#b)"
       id="path16"
       style="fill:url(#b)" />
    <path
       d="m -197.12412,253.97891 c 0.0153,3.32425 19.28985,5.96766 43.23585,5.99985 l 244.8504,0.32915 c 0,0 0.13745,-3.00475 0.1527,-6.329 z"
       fill="url(#j)"
       stroke-width="0.710069"
       id="path17"
       style="fill:url(#j)" />
    <path
       d="m 89.00631,246.60321 -84.5428582,0.39869 -45.2156758,1.17651 35.6749937,10.53784 H 69.03837 c 2.61069,-0.85864 13.20082,-1.91738 19.17398,-3.08787 0.50611,-0.52561 0.79396,-1.07855 0.79396,-1.65337 z"
       fill="url(#e)"
       stroke-width="1.84007"
       id="path18"
       style="fill:url(#e)" />
    <path
       d="m -7.0290057,250.00088 a 2.9999998,2.9999998 0 0 1 -2.9946873,3 2.9999998,2.9999998 0 0 1 -3.005295,-2.98937 2.9999998,2.9999998 0 0 1 2.984037,-3.01059 2.9999998,2.9999998 0 0 1 3.0158693,2.9787"
       fill="url(#d)"
       id="path19-9"
       style="fill:url(#d-3)" />
    <path
       d="m -0.27066444,249.97063 a 2.9999998,2.9999998 0 0 1 -2.99468646,3 2.9999998,2.9999998 0 0 1 -3.0052958,-2.98937 2.9999998,2.9999998 0 0 1 2.9840378,-3.01059 2.9999998,2.9999998 0 0 1 3.01586846,2.9787"
       fill="url(#d)"
       id="path19-9-3"
       style="fill:url(#linearGradient8)" />
    <path
       d="m 15.982503,249.97063 a 2.9999998,2.9999998 0 0 1 -2.994686,3 2.9999998,2.9999998 0 0 1 -3.0052954,-2.98937 2.9999998,2.9999998 0 0 1 2.9840374,-3.01059 2.9999998,2.9999998 0 0 1 3.015868,2.9787"
       fill="url(#d)"
       id="path19-9-0"
       style="fill:url(#linearGradient14)" />
    <path
       d="m 22.740843,249.97063 a 2.9999998,2.9999998 0 0 1 -2.994686,3 2.9999998,2.9999998 0 0 1 -3.005295,-2.98937 2.9999998,2.9999998 0 0 1 2.984037,-3.01059 2.9999998,2.9999998 0 0 1 3.015868,2.9787"
       fill="url(#d)"
       id="path19-9-3-4"
       style="fill:url(#linearGradient15)" />
    <path
       d="m 38.994,249.97063 a 2.9999998,2.9999998 0 0 1 -2.99469,3 2.9999998,2.9999998 0 0 1 -3.005291,-2.98937 2.9999998,2.9999998 0 0 1 2.984041,-3.01059 2.9999998,2.9999998 0 0 1 3.01586,2.9787"
       fill="url(#d)"
       id="path19-9-0-6"
       style="fill:url(#linearGradient16)" />
    <path
       d="m 45.75234,249.97063 a 2.9999998,2.9999998 0 0 1 -2.99469,3 2.9999998,2.9999998 0 0 1 -3.00529,-2.98937 2.9999998,2.9999998 0 0 1 2.98404,-3.01059 2.9999998,2.9999998 0 0 1 3.01586,2.9787"
       fill="url(#d)"
       id="path19-9-3-4-1"
       style="fill:url(#linearGradient17)" />
    <path
       d="m 63.00601,249.97063 a 2.9999998,2.9999998 0 0 1 -2.99469,3 2.9999998,2.9999998 0 0 1 -3.00529,-2.98937 2.9999998,2.9999998 0 0 1 2.98404,-3.01059 2.9999998,2.9999998 0 0 1 3.01586,2.9787"
       fill="url(#d)"
       id="path19-9-0-9"
       style="fill:url(#linearGradient18)" />
    <path
       d="m 69.76435,249.97063 a 2.9999998,2.9999998 0 0 1 -2.99469,3 2.9999998,2.9999998 0 0 1 -3.00529,-2.98937 2.9999998,2.9999998 0 0 1 2.98403,-3.01059 2.9999998,2.9999998 0 0 1 3.01587,2.9787"
       fill="url(#d)"
       id="path19-9-3-4-17"
       style="fill:url(#linearGradient19)" />
    <path
       d="m -20.840598,250.00127 a 2.9999998,2.9999998 0 0 1 -2.994686,3 2.9999998,2.9999998 0 0 1 -3.005295,-2.98937 2.9999998,2.9999998 0 0 1 2.984037,-3.01059 2.9999998,2.9999998 0 0 1 3.015868,2.9787"
       fill="url(#d)"
       id="path19"
       style="fill:url(#d)" />
    <path
       d="m -16.008379,222.89211 a 0.50005,0.50005 0 0 0 -0.271485,0.0762 l -6,3.58203 a 0.50005,0.50005 0 0 0 0.08594,0.90039 l 11,4 a 0.5004318,0.5004318 0 1 0 0.339844,-0.9414 l -10.009766,-3.64063 5.095703,-3.04297 a 0.50005,0.50005 0 0 0 -0.240233,-0.93359 z"
       fill="#2c3e50"
       id="path20" />
    <path
       d="m 12.496661,222.95566 a 0.50005,0.50005 0 0 0 -0.271484,0.0762 l -6.0000008,3.58203 a 0.50005,0.50005 0 0 0 0.08594,0.90039 l 11.0000008,4 a 0.50043179,0.50043179 0 1 0 0.339844,-0.9414 l -10.0097668,-3.64063 5.0957038,-3.04297 a 0.50005,0.50005 0 0 0 -0.240234,-0.93359 z"
       fill="#2c3e50"
       id="path20-9" />
    <path
       d="m 44.51266,222.95567 a 0.50005,0.50005 0 0 0 -0.27148,0.0762 l -6,3.58203 a 0.50005,0.50005 0 0 0 0.0859,0.90039 l 11,4 a 0.50043179,0.50043179 0 1 0 0.33984,-0.9414 l -10.00976,-3.64063 5.0957,-3.04297 a 0.50005,0.50005 0 0 0 -0.24024,-0.93359 z"
       fill="#2c3e50"
       id="path20-9-0" />
    <g
       transform="matrix(1.0005002,0,0,1.0006253,-48.046512,216.95186)"
       id="g23">
      <path
         d="m 38.395667,12.019531 -0.01013,0.0039 c -0.02123,-6.96e-4 -0.04246,-0.0014 -0.06369,-0.002 -3.389424,0.01347 -6.647584,0.76521 -9.133852,2.107422 l -0.03352,0.0078 -22.6485988,11.671875 0.00335,0.002 c -1.3398104,0.672036 -2.1087311,1.651606 -2.1049755,2.681641 0.012301,1.943814 2.7204989,3.515759 6.0568333,3.515624 H 172.357 L 72.356829,12.021484 Z"
         fill="#bdc3c7"
         stroke-width="0.346416"
         id="path21" />
      <path
         d="m 24.210938,12.019531 -0.0059,0.0039 c -0.01237,-6.96e-4 -0.02474,-0.0014 -0.03711,-0.002 -1.975007,0.01347 -3.873526,0.76521 -5.322266,2.107422 l -0.01953,0.0078 -13.197266,11.671875 0.00195,0.002 c -0.6434906,0.554883 -1.0651413,1.323286 -1.1875,2.164062 0.2465677,1.738537 1.7340852,3.03127 3.4902344,3.033203 v 0.002 H 463.90552 l 3.40158,-18.988309 z"
         fill="#fdfdfd"
         stroke-width="0.264435"
         id="path22" />
      <path
         d="m -133.51825,5 c -3.22914,0.2821468 -6.12762,0.6216122 -8.70369,1 H 138.67258 C 136.09651,5.6216122 133.19801,5.2821468 129.96889,5 H -42.337438 Z"
         fill="#34495e"
         stroke-width="2.75609"
         id="path23" />
    </g>
    <path
       d="m -33.218378,240.98056 -6.997339,1.79604 0.0067,0.002 a 12.168818,3.5308403 0 0 0 -3.104689,1.20193 c 45.3454114,-2e-5 90.612836,-2e-5 135.407596,0 v -2.99993 c -41.62962,0 -82.9497924,-1e-5 -125.312306,0 z"
       fill="#da4453"
       stroke-width="0.491188"
       id="path24" />
    <g
       fill="#34495e"
       id="g29"
       transform="translate(-48.024002,-32.020014)">
      <path
         d="m 17.813678,269.58765 a 1.4123354,1.4123347 0 0 1 -1.409834,1.41233 1.4123354,1.4123347 0 0 1 -1.414828,-1.40733 1.4123354,1.4123347 0 0 1 1.404821,-1.41732 1.4123354,1.4123347 0 0 1 1.419805,1.40231"
         id="path25" />
      <rect
         transform="skewY(8.4396683e-4)"
         x="22.915226"
         y="262.99966"
         width="8.0847721"
         height="7.999876"
         ry="0.99987602"
         id="rect25" />
      <path
         transform="skewY(1.7303325e-4)"
         d="M 16.401342,268.17529 H 29 v 2.82463 H 16.401342 Z"
         id="path26" />
      <path
         d="m 15.478807,268.51826 5.28127,-4.67136 2.15515,-0.8469 c 0,0 0.441992,1.92888 0.572656,2.50902 0.130664,0.58014 -0.187386,3.36775 -0.187386,3.36775 l -6.454553,0.87932 z"
         id="path27" />
      <path
         d="m 26.080824,266.16559 a 3.1655984,3.1655967 0 0 1 -3.15999,3.16559 3.1655984,3.1655967 0 0 1 -3.171187,-3.15438 3.1655984,3.1655967 0 0 1 3.148755,-3.17676 3.1655984,3.1655967 0 0 1 3.182343,3.14312"
         id="path28" />
      <path
         d="m 22.999998,263 h 3 v 1 h -3 z"
         id="path29" />
    </g>
    <path
       d="m -13.748367,230.98017 c -0.706699,0 -1.275779,0.44662 -1.275779,1.00062 v 5.99985 c 0,0.554 0.56957,0.99867 1.276269,0.99867 l 11.3433851,-0.0251 1.3617244,-1.22793 c 0,0 0.07643,-4.99777 0.04978,-5.76507 -0.02309,-0.66471 -0.796674,-0.99119 -1.7372414,-0.98108 -1.2218811,0.0131 -11.0181391,0 -11.0181391,0 z"
       fill="#34495e"
       stroke-width="0.29883"
       id="path30" />
    <path
       d="m -13.747877,231.98079 c -0.706699,0 -1.276269,0.44467 -1.276269,0.99867 v 5.00118 c 0,0.554 0.56957,0.99867 1.276269,0.99867 h 11.3684421 c 0.6710654,0.0251 1.46741346,-0.0251 1.41183746,-0.97733 l -0.02506,-5.00263 c 0.01382,-0.74048 -0.49855806,-1.02988 -1.31161146,-1.01856 z"
       fill="url(#g)"
       stroke-width="0.29883"
       id="path31"
       style="fill:url(#linearGradient1)" />
    <path
       d="m 2.2537784,230.96088 c -0.7066994,0 -1.27577944,0.44662 -1.27577944,1.00062 v 5.99985 c 0,0.554 0.56957004,0.99867 1.27626944,0.99867 l 11.3433846,-0.0251 1.361724,-1.22793 c 0,0 0.07643,-4.99777 0.04978,-5.76507 -0.02309,-0.66471 -0.796674,-0.99119 -1.737241,-0.98108 -1.221881,0.0131 -11.0181386,0 -11.0181386,0 z"
       fill="#34495e"
       stroke-width="0.29883"
       id="path30-3" />
    <path
       d="m 2.2542684,231.9615 c -0.7066994,0 -1.27626944,0.44467 -1.27626944,0.99867 v 5.00118 c 0,0.554 0.56957004,0.99867 1.27626944,0.99867 H 13.62271 c 0.671064,0.0251 1.467413,-0.0251 1.411836,-0.97733 l -0.02506,-5.00263 c 0.01382,-0.74048 -0.498558,-1.02988 -1.311611,-1.01856 z"
       fill="url(#g)"
       stroke-width="0.29883"
       id="path31-7"
       style="fill:url(#linearGradient9)" />
    <path
       d="m 18.26178,230.96088 c -0.706699,0 -1.275779,0.44662 -1.275779,1.00062 v 5.99985 c 0,0.554 0.56957,0.99867 1.276269,0.99867 l 11.343383,-0.0251 1.361724,-1.22793 c 0,0 0.07643,-4.99777 0.04978,-5.76507 -0.02309,-0.66471 -0.796674,-0.99119 -1.737241,-0.98108 -1.221881,0.0131 -11.018137,0 -11.018137,0 z"
       fill="#34495e"
       stroke-width="0.29883"
       id="path30-9" />
    <path
       d="m 18.26227,231.9615 c -0.706699,0 -1.276269,0.44467 -1.276269,0.99867 v 5.00118 c 0,0.554 0.56957,0.99867 1.276269,0.99867 h 11.36844 c 0.671064,0.0251 1.467413,-0.0251 1.411836,-0.97733 l -0.02506,-5.00263 c 0.01382,-0.74048 -0.498558,-1.02988 -1.311611,-1.01856 z"
       fill="url(#g)"
       stroke-width="0.29883"
       id="path31-73"
       style="fill:url(#linearGradient10)" />
    <path
       d="m 41.50513,222.95567 a 0.50005,0.50005 0 1 0 0,1 h 5 a 0.50005,0.50005 0 1 0 0,-1 z"
       fill="#233240"
       id="path39-4-6" />
    <path
       d="m 34.269786,230.96215 c -0.706699,0 -1.275779,0.44662 -1.275779,1.00062 v 5.99985 c 0,0.554 0.56957,0.99867 1.276269,0.99867 l 11.343384,-0.0251 1.36172,-1.22793 c 0,0 0.0764,-4.99777 0.0498,-5.76507 -0.0231,-0.66471 -0.79667,-0.99119 -1.73724,-0.98108 -1.22188,0.0131 -11.018135,0 -11.018135,0 z"
       fill="#34495e"
       stroke-width="0.29883"
       id="path30-3-7" />
    <path
       d="m 34.270276,231.96277 c -0.706699,0 -1.276269,0.44467 -1.276269,0.99867 v 5.00118 c 0,0.554 0.56957,0.99867 1.276269,0.99867 H 45.63872 c 0.67106,0.0251 1.46741,-0.0251 1.41183,-0.97733 l -0.0251,-5.00263 c 0.0138,-0.74048 -0.49856,-1.02988 -1.31161,-1.01856 z"
       fill="url(#g)"
       stroke-width="0.29883"
       id="path31-7-8"
       style="fill:url(#linearGradient11)" />
    <path
       d="m 50.27779,230.96215 c -0.7067,0 -1.27578,0.44662 -1.27578,1.00062 v 5.99985 c 0,0.554 0.56957,0.99867 1.27627,0.99867 l 11.34338,-0.0251 1.36172,-1.22793 c 0,0 0.0764,-4.99777 0.0498,-5.76507 -0.0231,-0.66471 -0.79667,-0.99119 -1.73724,-0.98108 -1.22188,0.0131 -11.01813,0 -11.01813,0 z"
       fill="#34495e"
       stroke-width="0.29883"
       id="path30-9-6" />
    <path
       d="m 50.27828,231.96277 c -0.7067,0 -1.27627,0.44467 -1.27627,0.99867 v 5.00118 c 0,0.554 0.56957,0.99867 1.27627,0.99867 h 11.36844 c 0.67106,0.0251 1.46741,-0.0251 1.41183,-0.97733 l -0.0251,-5.00263 c 0.0138,-0.74048 -0.49856,-1.02988 -1.31161,-1.01856 z"
       fill="url(#g)"
       stroke-width="0.29883"
       id="path31-73-8"
       style="fill:url(#linearGradient12)" />
    <g
       transform="matrix(0.93685634,0,0,0.87499915,-46.06655,1.8552175)"
       fill="url(#h)"
       id="g36"
       style="fill:url(#g)">
      <path
         d="m 17.813678,269.58765 a 1.4123354,1.4123347 0 0 1 -1.409834,1.41233 1.4123354,1.4123347 0 0 1 -1.414828,-1.40733 1.4123354,1.4123347 0 0 1 1.404821,-1.41732 1.4123354,1.4123347 0 0 1 1.419805,1.40231"
         id="path32"
         style="fill:url(#linearGradient2)" />
      <rect
         transform="skewY(8.4396683e-4)"
         x="22.915226"
         y="262.99966"
         width="8.0847721"
         height="7.999876"
         ry="0.99987602"
         id="rect32"
         style="fill:url(#linearGradient3)" />
      <path
         transform="skewY(1.7303325e-4)"
         d="M 16.401342,268.17529 H 29 v 2.82463 H 16.401342 Z"
         id="path33"
         style="fill:url(#linearGradient4)" />
      <path
         d="m 15.478807,268.51826 5.28127,-4.67136 2.15515,-0.8469 c 0,0 0.441992,1.92888 0.572656,2.50902 0.130664,0.58014 -0.187386,3.36775 -0.187386,3.36775 l -6.454553,0.87932 z"
         id="path34"
         style="fill:url(#linearGradient5)" />
      <path
         d="m 26.080824,266.16559 a 3.1655984,3.1655967 0 0 1 -3.15999,3.16559 3.1655984,3.1655967 0 0 1 -3.171187,-3.15438 3.1655984,3.1655967 0 0 1 3.148755,-3.17676 3.1655984,3.1655967 0 0 1 3.182343,3.14312"
         id="path35"
         style="fill:url(#linearGradient6)" />
      <path
         d="m 22.999998,263 h 3 v 1 h -3 z"
         id="path36"
         style="fill:url(#linearGradient7)" />
    </g>
    <path
       d="m -196.04089,252.98024 v 0.99477 c 0,0.34307 0.19387,0.67748 0.49596,1.00453 h 319.8666 c 0.30208,-0.32705 0.83926,-1.00112 0.49625,-1.00453 L 24.767642,252.98024 Z"
       fill="#34495e"
       id="path37"
       style="stroke-width:2.34891" />
    <path
       d="m -196.18677,252.98024 v 0.99477 c 0,0.002 -1e-5,0.004 0,0.006 H 67.80586 c 1e-5,-0.002 0,-0.004 0,-0.006 v -0.99477 z"
       fill="#3daee9"
       id="path38"
       style="stroke-width:2.56838" />
    <path
       d="m -19.024005,222.89602 a 0.50005,0.50005 0 1 0 0,1 h 5 a 0.50005,0.50005 0 1 0 0,-1 z"
       fill="#233240"
       id="path39" />
    <path
       d="m 9.4891246,222.95566 a 0.50005,0.50005 0 1 0 0,1 h 5.0000004 a 0.50005,0.50005 0 1 0 0,-1 z"
       fill="#233240"
       id="path39-4" />
    <rect
       style="fill:#000000;fill-opacity:0;stroke-width:1.00056"
       id="rect10"
       width="118.19514"
       height="42.6912"
       x="-101.33666"
       y="216.11163"
       rx="0" />
    <rect
       style="fill:#000000;fill-opacity:0;stroke-width:1.00056"
       id="rect12"
       width="44.995911"
       height="57.927509"
       x="56.992088"
       y="204.04091" />
    <rect
       style="fill:#000000;fill-opacity:0;stroke-width:1.00056"
       id="rect14"
       width="40.68779"
       height="28.485016"
       x="48.974205"
       y="238.62988" />
    <rect
       style="fill:#000000;fill-opacity:0;stroke-width:1.00056"
       id="rect19"
       width="49.363838"
       height="32.197834"
       x="52.035316"
       y="186.71724" />
    <rect
       style="fill:#000000;fill-opacity:0;stroke-width:1.00056"
       id="rect20"
       width="38.632568"
       height="86.665833"
       x="59.278908"
       y="189.93703" />
    <rect
       style="fill:#000000;fill-opacity:0;stroke-width:1.00056"
       id="rect21"
       width="30.435129"
       height="62.47229"
       x="59.667084"
       y="203.15308" />
  </g>
</svg>
