<?xml version="1.0" encoding="UTF-8" standalone="no"?>
<svg xmlns="http://www.w3.org/2000/svg" viewBox="0 0 22 22">
  <defs id="defs3051">
    <style type="text/css" id="current-color-scheme">
      .ColorScheme-Text {
        color:#4d4d4d;
      }
      </style>
  </defs>
  <path
     d="m 4.0396037,14.523449 q 0,0.616339 0.4295891,1.019994 0.429588,0.40366 1.0457693,0.40366 0.6161813,0 1.019733,-0.40366 0.4035567,-0.403655 0.4035567,-1.019994 0,-0.598975 -0.4252491,-1.037359 -0.4252562,-0.438377 -1.0240769,-0.438377 -0.590145,0 -1.019733,0.442717 -0.4295891,0.442723 -0.4295891,1.033019 z m -2.430006,0 q 0,0.121534 0.2256402,0.30383 0.2256403,0.182295 0.3558209,0.182295 h 1.414612 q -0.034711,-0.677106 -0.034711,-0.520849 0,-0.755232 0.5727844,-1.315144 0.5727904,-0.559912 1.3278291,-0.559912 0.7376792,0 1.336501,0.555572 0.5988207,0.555573 0.5988207,1.293441 0,0.234383 -0.07811,0.494805 h 7.767346 q -0.03471,-0.138893 -0.03471,-0.468762 0,-0.746546 0.564107,-1.310804 0.564114,-0.564252 1.31047,-0.564252 0.807107,0 1.332162,0.551233 0.525054,0.551232 0.603166,1.375906 H 19.0015 q 0.260361,0 0.668257,-0.173611 0.477324,-0.190981 0.477324,-0.408 v -3.237949 q 0,0.01736 -1.093506,-2.7865407 Q 18.879999,7.4919903 18.715104,7.0405814 18.428711,6.4676508 18.064214,6.4676508 H 2.2778476 q -0.1648948,0 -0.4165724,0.1649369 -0.2516775,0.164937 -0.2516775,0.3211887 z m 13.9204603,-0.03472 q 0,0.61634 0.407895,1.037358 0.407896,0.421019 1.024078,0.421019 0.590144,0 1.032754,-0.416679 0.442604,-0.416679 0.442604,-1.006975 0,-0.581616 -0.433927,-1.028679 -0.433933,-0.447057 -1.0154,-0.447057 -0.616176,0 -1.037087,0.412334 -0.420917,0.41234 -0.420917,1.028679 z M 2.9374208,10.347977 V 7.7958135 h 2.3432183 v 2.5521635 z m 3.2110772,0 V 7.795814 h 2.2477577 v 2.552163 z m 3.0722257,0 V 7.795814 h 2.3345403 v 2.552163 z m 3.2457913,0 V 7.7958135 h 2.334547 v 2.5521635 z m 3.193723,0 V 7.7958135 h 1.952683 l 0.989363,2.5521635 z"
     style="color:#4d4d4d;fill:currentColor;fill-opacity:1;stroke:none"
     class="ColorScheme-Text"/>
</svg>
