<?xml version="1.0" encoding="UTF-8" standalone="no"?>
<svg xmlns="http://www.w3.org/2000/svg" viewBox="0 0 22 22">
  <defs id="defs3051">
    <style type="text/css" id="current-color-scheme">
      .ColorScheme-Text {
        color:#4d4d4d;
      }
      </style>
  </defs>
  <path
     d="m 1.1163556,11.801115 c 0,0.118337 0.0099,0.279403 0.02958,0.483198 0.04199,0.532284 0.07747,1.076242 0.11833,1.597522 0.04602,0.407595 0.214843,0.63263 0.32003,0.954766 0.210373,0.197222 0.363684,0.452099 0.646373,0.484969 -0.01315,0 0.262961,-0.0033 0.828343,-0.0099 0.578525,1.078159 1.403578,1.617239 2.475161,1.617239 1.012421,0 1.811181,-0.53908 2.396279,-1.617239 h 5.9759144 c 0.545656,1.078159 1.357561,1.617239 2.435715,1.617239 1.137332,0 1.936091,-0.53908 2.396279,-1.617239 h 1.222793 c 0.06574,-0.05259 0.157779,-0.138056 0.276112,-0.256389 0.216951,-0.256393 0.325427,-0.861214 0.325427,-1.814465 0,-1.906505 -0.713297,-3.234485 -2.13989,-3.9839406 C 18.245299,9.1648612 18.080946,9.1188541 17.929744,9.1188541 H 15.424991 C 14.397433,8.0124165 13.494545,7.0354966 12.313773,6.1013161 12.067245,6.0092806 11.769766,5.9632629 11.421337,5.9632629 H 7.2105936 c -0.282689,0 -0.654128,0.072314 -1.114316,0.2169432 -1.069084,0.3571175 -1.574624,1.1445303 -2.07086,1.9229404 -0.210373,0.3550064 -0.401022,0.5588063 -0.571948,0.6113996 -0.111759,0.032867 -0.410884,0.049301 -0.897373,0.049301 -0.308986,0 -0.519359,0.019723 -0.631118,0.05917 -0.09203,0.032867 -0.197222,0.1101115 -0.315559,0.2317325 -0.118337,0.1216231 -0.177506,0.2251661 -0.177506,0.3106288 V 10.82484 c -0.210372,0.203809 -0.315558,0.529235 -0.315558,0.976277 z m 0.867787,-1.69613 h 0.246536 c 0.07889,0 0.175858,0.09861 0.290903,0.29584 0.115046,0.197222 0.172569,0.341851 0.172569,0.433888 0,0.124909 -0.108473,0.31556 -0.325419,0.571953 h -0.374722 c 0,-0.08546 0.0033,-0.220232 0.0099,-0.404308 0.0066,-0.184076 0.0099,-0.322134 0.0099,-0.414174 0,-0.184076 -0.0099,-0.345142 -0.02959,-0.483199 z m 1.932806,4.279768 c 0,-0.433892 0.15778,-0.802045 0.473339,-1.104458 0.315559,-0.302408 0.690285,-0.453612 1.124176,-0.453612 0.433891,0 0.808616,0.151204 1.124175,0.453612 0.315559,0.302413 0.473339,0.670566 0.473339,1.104458 0,0.427323 -0.162709,0.800407 -0.488127,1.119252 -0.325419,0.318845 -0.701787,0.478268 -1.129106,0.478268 -0.414173,0 -0.780682,-0.162709 -1.099527,-0.488127 -0.318846,-0.325424 -0.478269,-0.695222 -0.478269,-1.109393 z m -2.248366,-2.268079 c 0,-0.08546 0.02958,-0.203797 0.08875,-0.355004 0.322132,0.01315 0.47005,0.01972 0.443753,0.01972 0.539078,0 0.808617,-0.315559 0.808617,-0.946677 0,-0.532505 -0.276112,-0.9532501 -0.828337,-1.2622364 0.04602,-0.039439 0.0756,-0.082171 0.08875,-0.1281941 0.86121,0 1.390428,-0.034512 1.587655,-0.1035362 0.197227,-0.06903 0.358293,-0.202159 0.483199,-0.3993854 0.098613,-0.1840717 0.200513,-0.3714343 0.3057,-0.562088 0.663994,-1.0584391 1.466048,-1.617412 2.406148,-1.6206171 l 4.8336184,-0.016479 c 0.09861,-3.362e-4 0.241623,0.1069606 0.412549,0.2220057 1.167588,1.0432239 1.868313,1.865842 3.076701,2.983022 h 2.396279 c 0.262965,0 0.509496,0.1413447 0.739594,0.4240347 -0.420747,0.02629 -0.631121,0.220231 -0.631121,0.581814 0,0.414167 0.230095,0.798755 0.690283,1.153762 0.414173,0.308981 0.841494,0.486481 1.281963,0.532502 v 1.153768 c 0,0.03287 -0.04273,0.233377 -0.128202,0.601532 h -0.808614 c 0.01315,-0.703435 -0.236667,-1.311545 -0.749455,-1.824331 -0.512786,-0.512781 -1.120897,-0.769172 -1.824332,-0.769172 -0.70343,0 -1.309894,0.256391 -1.819393,0.769172 -0.509494,0.512786 -0.774103,1.120896 -0.793827,1.824331 H 8.0685216 c -0.01315,-0.703435 -0.266257,-1.311545 -0.759312,-1.824331 -0.493062,-0.512781 -1.091311,-0.769172 -1.794746,-0.769172 -0.696857,0 -1.304966,0.25968 -1.824325,0.779039 -0.519359,0.519354 -0.775751,1.127462 -0.769178,1.824324 h -0.769172 c -0.131483,-0.151206 -0.220235,-0.276114 -0.266255,-0.374723 -0.144634,-0.322137 -0.216951,-0.95983 -0.216951,-1.91308 z M 18.156548,10.972773 c 0,-0.09204 0.01644,-0.157782 0.04931,-0.197225 h 0.631118 c 0.335277,0 0.634399,0.447042 0.897365,1.341126 h -0.138054 c -0.124911,0 -0.246531,-0.01643 -0.364862,-0.0493 -0.190655,-0.05259 -0.417466,-0.2038 -0.680431,-0.45362 -0.262965,-0.249815 -0.394448,-0.463474 -0.394448,-0.640977 z m -3.392262,3.41198 c 0,-0.427319 0.156136,-0.793827 0.468409,-1.099522 0.312273,-0.305699 0.682068,-0.458548 1.109386,-0.458548 0.44047,0 0.813555,0.149561 1.119254,0.448683 0.305694,0.299126 0.458541,0.668922 0.458541,1.109387 0,0.427323 -0.156133,0.800407 -0.4684,1.119252 -0.312273,0.318845 -0.682071,0.478268 -1.109395,0.478268 -0.414167,0 -0.780674,-0.162709 -1.099519,-0.488127 -0.318851,-0.325424 -0.478276,-0.695222 -0.478276,-1.109393 z M 5.8891936,9.3949776 c 0,0.2498197 0.06903,0.4338957 0.207084,0.5522278 l 3.512365,-0.023305 -0.139831,-2.6431267 -2.935793,0.03335 c 0,0 -0.643825,0.8580646 -0.643825,2.0808539 z m 4.3263774,0.5477243 3.909491,0.0045 c 0.08546,-0.078886 0.087,-0.1577761 0.087,-0.2366654 C 11.962346,7.2452338 11.962346,7.2452338 11.962346,7.2452338 L 10.0309,7.2738918 Z"
     style="color:#4d4d4d;fill:currentColor;fill-opacity:1;stroke:none;stroke-width:0.07012425"
     class="ColorScheme-Text"/>
</svg>
