<?xml version="1.0" encoding="UTF-8" standalone="no"?>
<svg
   version="1.0"
   viewBox="0 0 22 22"
   xmlns="http://www.w3.org/2000/svg"
   xmlns:svg="http://www.w3.org/2000/svg">
    <style
       type="text/css"
       id="current-color-scheme">
      .ColorScheme-Text {
        color:#4d4d4d;
      }
      </style>
  <circle
     cx="5.0503831"
     cy="3.5273764"
     r="1.4868186"
     id="circle1"
     style="fill:currentColor;fill-opacity:1;stroke:none" class="ColorScheme-Text" />
  <path
     d="m 4.844516,14.438316 v 5.169549 c -0.00778,0.939211 -1.4058482,0.939211 -1.4181998,0 V 14.438316 H 1.5963812 L 3.5635611,7.5303439 H 3.2433225 L 2.0996129,11.464685 C 1.8104836,12.334815 0.63383469,11.982554 0.91015529,11.052953 L 2.1911094,6.7983725 C 2.3384194,6.3097822 2.9541925,5.4470181 4.021045,5.4259277 h 2.058678 c 1.0361096,0.021091 1.6544449,0.8911747 1.8299353,1.3724448 l 1.2809548,4.2545805 c 0.259851,0.925026 -0.9074653,1.304736 -1.1894581,0.411732 L 6.8574454,7.5303439 H 6.4914584 L 8.5043879,14.438316 H 6.6287034 v 5.169549 c 0.014641,0.939211 -1.3779413,0.934635 -1.3724519,0 v -5.169549 z"
     id="path1"
     style="fill:currentColor;fill-opacity:1;stroke:none" class="ColorScheme-Text" />
  <path
     d="m 15.641127,5.4259277 c -1.143251,0 -1.875685,0.9898521 -1.875685,1.9671708 v 4.5748165 c -0.01052,0.893918 1.276656,0.893918 1.280956,0 V 7.7590837 h 0.320238 V 19.379124 c -0.01986,1.213243 1.69452,1.178474 1.692691,0 v -6.770735 h 0.274491 v 6.770735 c 0.02242,1.178474 1.745757,1.213243 1.738437,0 V 7.7590837 h 0.320239 v 4.2088313 c -0.01509,0.900781 1.265401,0.900781 1.280954,0 V 7.3930985 C 20.65515,6.4157798 19.895269,5.4434493 18.752017,5.4259277 Z"
     id="path2"
     style="fill:currentColor;fill-opacity:1;stroke:none" class="ColorScheme-Text" />
  <circle
     cx="17.219444"
     cy="3.5273764"
     r="1.4868186"
     id="circle2"
     style="fill:currentColor;fill-opacity:1;stroke:none" class="ColorScheme-Text" />
  <path
     d="m 10.1336,14.491934 c -0.9587709,0 -1.573015,0.368899 -1.573015,0.733127 v 1.704949 c -0.00883,0.333147 1.0706481,0.333147 1.0742551,0 v -1.568553 h 0.268562 v 4.330574 c -0.01665,0.452153 1.4210849,0.439195 1.4195499,0 v -2.523328 h 0.230198 v 2.523328 c 0.0188,0.439195 1.464054,0.452153 1.457915,0 v -4.330574 h 0.268563 v 1.568553 c -0.01266,0.335705 1.06121,0.335705 1.074253,0 v -1.704949 c -0.01534,-0.364228 -0.652608,-0.726598 -1.611379,-0.733127 z"
     id="path3"
     style="fill:currentColor;fill-opacity:1;stroke:none" class="ColorScheme-Text" />
  <ellipse
     cx="11.42417"
     cy="12.9544"
     rx="1.2468998"
     ry="1.1311046"
     id="ellipse3"
     style="fill:currentColor;fill-opacity:1;stroke:none" class="ColorScheme-Text" />
</svg>
