<?xml version="1.0" encoding="UTF-8" standalone="no"?>
<svg
   viewBox="0 0 22 22"
   version="1.1"
   xmlns="http://www.w3.org/2000/svg"
   xmlns:svg="http://www.w3.org/2000/svg">
  <style type="text/css" id="current-color-scheme">.ColorScheme-Text { color:#4d4d4d; }</style>
  <path
     d="m 10.491155,2.2574308 c 0.536345,-0.087311 1.102276,-0.00357 1.582367,0.2549958 0.678531,0.3489034 1.179254,1.0247258 1.314168,1.7774801 0.111665,0.5954544 0.0039,1.2308272 -0.304159,1.7527303 -0.328914,0.5646791 -0.88467,0.9935421 -1.515978,1.1607281 C 10.83613,7.4030733 10.014459,7.2592671 9.4055333,6.8025955 8.8712664,6.4147715 8.5032341,5.8061029 8.4054395,5.1523521 8.3275243,4.6225057 8.4059462,4.0648554 8.658666,3.5901567 9.0132559,2.8885079 9.7163213,2.3788969 10.491155,2.2574308 Z m 0,0"
     id="path2"
     class="ColorScheme-Text"
     style="fill:currentColor;fill-opacity:1;stroke:none" />
  <path
     d="M 8.6884841,7.8340075 C 8.8949712,7.7179832 9.1338403,7.6756449 9.3682913,7.6723184 c 0.9988327,-7.149e-4 1.9976837,4.948e-4 2.9965357,-5.837e-4 0.252671,-0.00117 0.51063,0.041131 0.735525,0.1615357 0.172461,0.088061 0.314767,0.222252 0.452573,0.3561416 1.103055,1.106655 2.207498,2.211944 3.310062,3.319095 0.187994,0.184572 0.334972,0.431401 0.325331,0.703345 -0.0053,0.417543 -0.356874,0.785741 -0.765612,0.835831 -0.273631,0.04046 -0.55145,-0.07268 -0.744915,-0.264941 -0.711064,-0.709904 -1.419264,-1.422746 -2.129579,-2.133409 -3.38e-4,0.643076 1.69e-4,1.286157 -2.53e-4,1.92926 -1.775545,-2.96e-4 -3.5510757,3.9e-5 -5.3266131,-1.69e-4 -3.119e-4,-0.639621 2.49e-4,-1.279219 -2.74e-4,-1.918811 C 7.6573442,11.241741 7.0817842,11.812354 6.514674,12.391206 6.3017975,12.589105 6.122795,12.838122 5.8497995,12.958109 5.593186,13.078582 5.2783463,13.073772 5.033117,12.927186 4.744062,12.766946 4.5689088,12.418899 4.6266803,12.090771 4.6626604,11.852748 4.8011439,11.643076 4.9741219,11.481412 5.9892954,10.469302 6.9897737,9.4428433 8.0064955,8.4322147 8.2254907,8.2242007 8.4170163,7.9774429 8.6884797,7.8340107 Z m 0,0"
     id="path4"
      class="ColorScheme-Text"
     style="fill:currentColor;fill-opacity:1;stroke:none" />
  <path
     d="m 6.4639674,15.342935 c 0.5859448,-0.595003 1.1790173,-1.183161 1.767905,-1.775323 0.6707929,0.673643 1.3444539,1.344452 2.0130716,2.020276 -0.4894887,0.491375 -0.9792577,0.982472 -1.469547,1.473061 0.5156543,0.502857 1.0218323,1.015643 1.531014,1.525258 0.176629,0.181642 0.29339,0.432225 0.278795,0.689446 -0.0023,0.402025 -0.319867,0.772199 -0.7123227,0.845361 -0.248999,0.05482 -0.512001,-0.02726 -0.712683,-0.177617 C 9.0065439,19.832862 8.8937889,19.678431 8.7567454,19.549873 8.0343072,18.793054 7.3055987,18.042338 6.5839455,17.284764 6.1211394,16.769763 5.9989276,15.894609 6.4639674,15.342935 Z m 0,0"
     id="path6"
      class="ColorScheme-Text"
     style="fill:currentColor;fill-opacity:1;stroke:none" />
  <path
     d="m 11.522797,15.586285 c 0.671913,-0.67253 1.342724,-1.346152 2.014486,-2.018829 0.549682,0.551332 1.098901,1.103097 1.655195,1.647636 0.255559,0.236517 0.409076,0.579475 0.403222,0.929364 0.01588,0.412457 -0.135703,0.828115 -0.408887,1.136314 -0.736635,0.769636 -1.472608,1.539982 -2.20987,2.309058 -0.19808,0.2125 -0.404256,0.448675 -0.69912,0.518773 -0.358974,0.103522 -0.763511,-0.07127 -0.955908,-0.386962 -0.172494,-0.26279 -0.181738,-0.617543 -0.03132,-0.89234 0.119206,-0.223236 0.320725,-0.382449 0.491656,-0.563318 0.414347,-0.395525 0.813344,-0.8069 1.218576,-1.211779 -0.505252,-0.476251 -0.984047,-0.979994 -1.478029,-1.467917 z m 0,0"
     id="path8"
      class="ColorScheme-Text"
     style="fill:currentColor;fill-opacity:1;stroke:none" />
</svg>
