<?xml version="1.0" encoding="UTF-8" standalone="no"?>
<svg xmlns="http://www.w3.org/2000/svg" viewBox="0 0 22 22">
  <defs id="defs3051">
    <style type="text/css" id="current-color-scheme">
      .ColorScheme-Text {
        color:#4d4d4d;
      }
      </style>
  </defs>
  <path
     d="m 17.04208,9.3374564 c -1.303024,0.047755 -2.473017,0.3718062 -3.509978,0.9721526 -1.077896,0.620813 -1.917017,1.490631 -2.517363,2.609452 H 10.90218 C 10.342764,11.84117 9.5172871,10.981586 8.4257494,10.340311 7.3615,9.7126713 6.2119748,9.381797 4.9771738,9.347688 V 3.9138739 c 0,-0.5525898 0.2524193,-1.065952 0.757258,-1.5400866 C 6.2392657,1.8996522 6.7679775,1.6625846 7.3205673,1.6625846 H 14.73962 c 0.538943,0 1.057424,0.2353622 1.555441,0.7060865 0.498013,0.4707249 0.747019,0.9755611 0.747019,1.5145087 z m 0,6.0375656 c 0,0.566236 -0.25924,1.079601 -0.77772,1.540094 -0.518481,0.460493 -1.06425,0.690739 -1.637307,0.690739 H 7.412664 c -0.5798783,0 -1.1307629,-0.238773 -1.6526538,-0.716318 C 5.2381193,16.411987 4.9771738,15.886683 4.9771738,15.313626 V 9.9719091 c 1.187045,0.088691 2.2871114,0.4792579 3.3001993,1.1717009 1.0130832,0.692442 1.7686319,1.577611 2.2666449,2.655507 h 0.77772 c 0.784544,-1.303024 1.552031,-2.22401 2.302461,-2.762959 0.852768,-0.607167 1.992062,-0.972148 3.417881,-1.0949429 z m 1.422406,5.618014 H 17.001148 L 16.100629,20.348344 H 5.9186252 L 5.0385691,20.993036 H 3.708261 l 4.3490944,-3.049488 h 1.2177485 l -0.7060865,0.50143 H 13.35814 l -0.716325,-0.50143 h 1.09495 z M 12.078989,3.1361606 c 0,-0.2797101 -0.104036,-0.5270138 -0.312107,-0.7419109 -0.208076,-0.2148924 -0.451967,-0.3223386 -0.731672,-0.3223386 -0.272885,0 -0.51507,0.1057411 -0.726557,0.3172232 -0.211483,0.2114863 -0.3172238,0.4536717 -0.3172238,0.726556 0,0.2865313 0.09892,0.5321274 0.2967608,0.7367884 0.19784,0.2046611 0.440023,0.3069916 0.726549,0.3069916 0.272885,0 0.518481,-0.1023305 0.736789,-0.3069916 0.218307,-0.204661 0.327461,-0.4434337 0.327461,-0.7163181 z M 16.438322,7.649098 V 6.3085517 c 0,-0.3615709 -0.102331,-0.5832891 -0.306992,-0.6651545 -0.06822,-0.027289 0,0 -2.276882,-0.413769 -2.246181,-0.3845338 -2.198425,-0.3845338 -2.246181,-0.3845338 -0.15691,0 -0.235365,0.051166 -0.235365,0.1534993 v 1.8010371 c 0,0.1023329 0.102333,0.2046635 0.306999,0.3069916 0.03411,0.013647 0,0 2.256413,0.4101124 2.266643,0.3779596 2.225713,0.3779596 2.266643,0.3779596 0.15691,0 0.235365,-0.081865 0.235365,-0.2455964 z M 10.646353,6.7996308 V 4.9985937 c 0,-0.1023329 -0.07845,-0.1534993 -0.235365,-0.1534993 -0.04775,0 0,0 -2.2461816,0.3845338 C 5.8879239,5.6433972 5.9561474,5.6161086 5.8879239,5.6433972 5.683263,5.7252626 5.5809325,5.9469808 5.5809325,6.3085517 V 7.649098 c 0,0.1637309 0.078455,0.2455964 0.2353647,0.2455964 0.04093,0 0,0 2.2666439,-0.3779596 C 10.339354,7.1066224 10.305245,7.1202693 10.339354,7.1066224 10.54402,7.0042943 10.646353,6.9019637 10.646353,6.7996308 Z m 5.403112,7.0097182 c 0,-0.279705 -0.104038,-0.527007 -0.312114,-0.741904 -0.208076,-0.214897 -0.451967,-0.322346 -0.731673,-0.322346 -0.272884,0 -0.515069,0.105743 -0.726556,0.31723 -0.211487,0.211487 -0.317231,0.453672 -0.317231,0.726557 0,0.286526 0.09892,0.532122 0.296768,0.736788 0.19784,0.204661 0.440026,0.306991 0.726557,0.306991 0.272885,0 0.518481,-0.10233 0.736788,-0.306991 0.218307,-0.204666 0.327461,-0.443441 0.327461,-0.716325 z m -7.9921096,-0.02046 c 0,-0.272885 -0.1057433,-0.51507 -0.31723,-0.726557 -0.2114819,-0.211487 -0.453665,-0.31723 -0.7265495,-0.31723 -0.2797101,0 -0.5236009,0.107449 -0.7316724,0.322346 -0.2080762,0.214897 -0.3121143,0.462199 -0.3121143,0.741904 0,0.272884 0.1091538,0.511659 0.3274613,0.716325 0.2183076,0.204661 0.4639037,0.306991 0.7367882,0.306991 0.2865311,0 0.5287166,-0.10233 0.7265566,-0.306991 0.1978401,-0.204666 0.2967601,-0.450262 0.2967601,-0.736788 z M 15.03638,19.621787 14.227957,19.04873 H 7.7196627 L 6.941942,19.621787 Z"
     style="color:#4d4d4d;fill:currentColor;fill-opacity:1;stroke:none;stroke-width:none"
     class="ColorScheme-Text"/>
</svg>
