<svg xmlns="http://www.w3.org/2000/svg" width="24" height="24" viewBox="0 0 6.3499998 6.3499999">
  <defs>
    <style type="text/css" id="current-color-scheme">
      .ColorScheme-Text { color: #232629; }
    </style>
  </defs>
  <path fill-rule="evenodd" d="M3.1734497 1.5875c-.2922056 0-.5276164.2354107-.5276164.5276164v2.3848673c0 .2922056.2354108.5270996.5276164.5270996H3.175V5.55625h.2645833v-.5291667H4.7625V5.55625h.2645833v-.5291667h.00155c.2922056 0 .5276164-.234894.5276164-.5270996V2.1151164c3e-7-.2922057-.2354105-.5276164-.5276161-.5276164Zm-1.9719726.2645832c-.079346 0-.1431438.063797-.1431438.1431437v1.0366292c0 .079346.063797.1431437.1431438.1431437h.1214396V4.7625H.79375v.79375h1.5875v-.5291667h.2645833V4.7625H1.5875V3.1749998h.1214396c.079346 0 .1431437-.063797.1431437-.1431437V1.9952269c0-.079346-.063797-.1431437-.1431437-.1431437zM3.175 2.1166667h1.8520833c.1465785 0 .2645834.1180048.2645834.2645833v.5291667c0 .146578-.1180049.2645833-.2645834.2645833H3.175c-.1465785 0-.2645833-.1180053-.2645833-.2645833V2.38125c0-.1465785.1180051-.2645833.2645833-.2645833zm1.8520833 1.5859497c.1461935 1e-7 .2646798.1189491.2645834.2656168-.000188.1464659-.1185909.2651001-.2645834.2651001-.1459924 0-.2643953-.1186342-.2645833-.2651001-.0000964-.1466677.1183898-.2656167.2645833-.2656168ZM3.175 3.7041667c.1471364 0 .2645833.1179641.2645833.2640665 0 .1461029-.1174469.2635498-.2635498.2635498h-.00207c-.1461029 0-.2635498-.1174469-.2635498-.2635498 0-.1461024.1174469-.2640665.2645833-.2640665z" clip-rule="evenodd" style="fill:currentColor" class="ColorScheme-Text"/>
</svg>
