<?xml version="1.0" encoding="UTF-8" standalone="no"?>
<svg
   version="1.0"
   viewBox="0 0 22 22"
   xmlns="http://www.w3.org/2000/svg"
   xmlns:svg="http://www.w3.org/2000/svg">
    <style
       type="text/css"
       id="current-color-scheme">
      .ColorScheme-Text {
        color:#4d4d4d;
      }
      </style>
  <path
     style="fill:currentColor;fill-opacity:1;fill-rule:evenodd;" class="ColorScheme-Text"
     d="M 8.4163804,5.2012021 C 9.288604,5.0765984 9.9739229,4.328978 9.9739229,3.5190561 9.9739229,2.5845304 9.2263024,1.83691 8.2917768,1.83691 c -0.9345254,0 -1.6821457,0.7476204 -1.6821457,1.6821461 0,0.2492068 0.062302,0.5607151 0.1869046,0.8099219 l 0.6230174,8.410729 h 6.1678699 l 2.492068,5.918662 3.364291,-1.308336 -0.560715,-1.183732 -1.806749,0.623017 -2.492069,-5.607153 H 8.8524924 L 8.7901909,10.123036 H 12.964406 V 8.5654934 H 8.6032856 L 8.4163804,5.2012021 V 5.3881068 Z M 14.646551,17.287732 c -1.059128,2.055956 -3.239688,3.364291 -5.5448518,3.364291 -3.4265938,0 -6.2301703,-2.741275 -6.2301703,-6.167868 0,-2.429766 1.4952409,-4.610325 3.6758006,-5.6071531 l 0.1246031,1.8067491 c -1.3083356,0.809922 -2.1182575,2.305163 -2.1182575,3.800404 0,2.492068 2.055956,4.485722 4.5480241,4.485722 2.2428618,0 4.1742148,-1.744447 4.4234208,-3.987309 z" />
</svg>
