<?xml version="1.0" encoding="UTF-8" standalone="no"?>
<svg
   version="1.0"
   viewBox="0 0 22 22"
   xmlns="http://www.w3.org/2000/svg"
   xmlns:svg="http://www.w3.org/2000/svg">
  <style
     type="text/css"
     id="current-color-scheme">.ColorScheme-Text { color:#4d4d4d; }</style>
  <path
     style="fill:currentColor;fill-opacity:1;fill-rule:evenodd;stroke-width:1"
     class="ColorScheme-Text"
     d="M 9.1871666,4.4794699 C 10.002096,4.363051 10.642398,3.6645398 10.642398,2.9078195 c 0,-0.8731392 -0.6985111,-1.5716504 -1.5716502,-1.5716504 -0.8731389,0 -1.57165,0.6985112 -1.57165,1.5716504 0,0.2328371 0.05821,0.5238833 0.1746273,0.7567203 l 0.582093,7.8582512 h 5.7627189 l 2.328371,5.52988 3.143299,-1.222394 -0.523883,-1.105977 -1.688069,0.582093 -2.328372,-5.238834 H 9.5946315 L 9.5364224,9.0780017 H 13.436444 V 7.6227699 H 9.3617944 l -0.1746278,-3.1433 V 4.6540973 Z M 15.008093,15.772068 c -0.989556,1.920906 -3.026881,3.1433 -5.1806244,3.1433 -3.2015101,0 -5.8209272,-2.561208 -5.8209272,-5.762718 0,-2.270161 1.3970225,-4.3074846 3.4343472,-5.2388338 L 7.5573068,9.6018849 C 6.3349122,10.358605 5.578192,11.755628 5.578192,13.15265 c 0,2.328371 1.9209058,4.191067 4.2492766,4.191067 2.0955344,0 3.9000214,-1.629859 4.1328574,-3.725393 z"
     id="path1" />
  <path
    style="fill:currentColor;fill-opacity:1;fill-rule:evenodd"
     class="ColorScheme-Text"
     d="m 20.964351,16.090473 v 5.274471 H 1.0348645 Z"
     sodipodi:nodetypes="cccc" />
</svg>
